<?xml version="1.0" standalone="no"?><!DOCTYPE svg PUBLIC "-//W3C//DTD SVG 1.1//EN" "http://www.w3.org/Graphics/SVG/1.1/DTD/svg11.dtd"><svg t="1635905470385" class="icon" viewBox="0 0 1024 1024" version="1.1" xmlns="http://www.w3.org/2000/svg" p-id="3032" xmlns:xlink="http://www.w3.org/1999/xlink" width="200" height="200"><defs><style type="text/css"></style></defs><path d="M764.8 207.8c53.7 38.1 89.8 99.7 93.2 170.2l5.4 113.6C891.5 533.1 908 583.1 908 637c0 143-116 259-259 259H377c-143 0-259-116-259-259 0-55.2 17.3-106.4 46.8-148.5L170 378c3.3-69.7 38.6-130.7 91.3-168.9-0.2-2-0.3-4-0.3-6.1v-52c0-32.6 26.4-59 59-59h2c32.6 0 59 26.4 59 59v16.2c3.4-0.2 6.8-0.2 10.2-0.2H432c29.2 0 57 6.3 82 17.5 25-11.3 52.8-17.5 82-17.5h40.8c2.8 0 5.5 0.1 8.2 0.2V151c0-32.6 26.4-59 59-59h2c32.6 0 59 26.4 59 59v52c0 1.6-0.1 3.2-0.2 4.8z" fill="#DADADA" p-id="3033"></path><path d="M649 911H377c-73.2 0-142-28.5-193.7-80.3C131.5 779 103 710.2 103 637c0-55.1 16.2-108.1 47-153.5l5-106.2c3.3-69.4 36.3-132.9 91-175.4V151c0-40.8 33.2-74 74-74h2c40.8 0 74 33.2 74 74v1h36c28.4 0 56 5.4 82 16.2 26-10.7 53.6-16.2 82-16.2h34v-1c0-40.8 33.2-74 74-74h2c40.8 0 74 33.2 74 74v49.3c25.8 19.7 47.6 44.8 63.4 73.1 17.9 32.1 27.8 67 29.6 103.9l5.2 109.5C907.5 531.4 923 583.3 923 637c0 73.2-28.5 142-80.3 193.7S722.2 911 649 911zM320 107c-24.3 0-44 19.7-44 44v52c0 1.5 0.1 3.1 0.2 4.6l0.9 8.6-7 5.1c-51.1 37-82.1 94.4-85.1 157.4l-5.4 114.9-2.5 3.6c-28.8 41.1-44 89.5-44 139.9 0 65.2 25.4 126.4 71.5 172.5 46 46 107.2 71.4 172.4 71.4h272c65.2 0 126.4-25.4 172.5-71.5C867.6 763.4 893 702.2 893 637c0-49.1-14.5-96.5-42-136.9l-2.4-3.5-5.6-117.9c-3-63.8-34.7-121.7-86.9-158.7l-7-4.9 0.7-8.5c0.1-1.2 0.1-2.4 0.1-3.6v-52c0-24.3-19.7-44-44-44h-2c-24.3 0-44 19.7-44 44v31.7l-15.5-0.6c-2.6-0.1-5.1-0.1-7.7-0.1H596c-26.4 0-51.9 5.5-75.8 16.2L514 201l-6.2-2.8C483.9 187.5 458.4 182 432 182h-40.8c-3.2 0-6.4 0.1-9.6 0.2l-15.7 0.7V151c0-24.3-19.7-44-44-44H320z" fill="#525252" p-id="3034"></path><path d="M653 331c46.4 0 84 37.6 84 84s-37.6 84-84 84-84-37.6-84-84 37.6-84 84-84z" fill="#FFFFFF" p-id="3035"></path><path d="M373 415m-84 0a84 84 0 1 0 168 0 84 84 0 1 0-168 0Z" fill="#FFFFFF" p-id="3036"></path><path d="M348.9 750.6l-79.7 7 2.1 23.9c1 11 10.7 19.1 21.7 18.2l39.8-3.5c11-1 19.1-10.7 18.2-21.7l-2.1-23.9zM684.4 754.3l-0.4 24c-0.2 11 8.6 20.2 19.6 20.3l40 0.7c11 0.2 20.2-8.6 20.3-19.6l0.4-24-79.9-1.4z" fill="#FFFFFF" p-id="3037"></path><path d="M373 508c51.3 0 93-41.7 93-93s-41.7-93-93-93-93 41.7-93 93 41.7 93 93 93z m0-168c41.4 0 75 33.6 75 75s-33.6 75-75 75-75-33.6-75-75 33.6-75 75-75zM653 508c51.3 0 93-41.7 93-93s-41.7-93-93-93-93 41.7-93 93 41.7 93 93 93z m0-168c41.4 0 75 33.6 75 75s-33.6 75-75 75-75-33.6-75-75 33.6-75 75-75z" fill="#525252" p-id="3038"></path><path d="M373 415m-25 0a25 25 0 1 0 50 0 25 25 0 1 0-50 0Z" fill="#525252" p-id="3039"></path><path d="M653 415m-25 0a25 25 0 1 0 50 0 25 25 0 1 0-50 0Z" fill="#525252" p-id="3040"></path><path d="M904.8 674.6c-4.5-2.1-9.9-0.2-12 4.3-19.4 41.3-31.2 66.2-148.2 66.2-55 0-74.9-7.3-96-15.1-25.2-9.3-53.8-19.8-141.4-19.8-83.4 0-110.8 9.4-137.4 18.4-24.8 8.5-48.3 16.5-119.9 16.5-57.3 0-94.5-10.4-110.6-31-9.9-12.6-12.1-29.3-6.7-51 1.2-4.8-1.8-9.7-6.6-10.9-4.8-1.2-9.7 1.8-10.9 6.6-6.7 27-3.3 49.4 10 66.4 20 25.5 60.8 37.9 124.8 37.9 3.7 0 7.3 0 10.7-0.1l1.7 19.2c0.7 7.7 4.3 14.7 10.2 19.7 5.3 4.4 11.8 6.8 18.6 6.8 0.9 0 1.7 0 2.6-0.1l39.8-3.5c7.7-0.7 14.7-4.3 19.7-10.2 5-5.9 7.3-13.5 6.7-21.2l-1.9-22.3c6.3-1.9 12-3.8 17.7-5.7 25.2-8.6 51.2-17.4 131.6-17.4 84.3 0 110.2 9.5 135.2 18.7 10.1 3.7 19.9 7.3 32.9 10.2l-0.4 21c-0.1 7.7 2.8 15.1 8.1 20.7s12.6 8.7 20.4 8.9l40 0.7h0.5c15.8 0 28.7-12.7 29-28.5l0.3-17.3c42.8-1.8 71.8-8.2 92-20 24.1-14 33.7-34.4 43.9-56 2.1-4.6 0.1-9.9-4.4-12.1zM339.5 783.3c-1.9 2.3-4.5 3.6-7.5 3.9l-39.8 3.5c-2.9 0.2-5.8-0.6-8-2.5-2.3-1.9-3.6-4.5-3.9-7.5l-1.3-14.9 61.8-5.4 1.3 14.9c0.2 2.9-0.7 5.8-2.6 8z m415.5-3.8c-0.1 2.9-1.2 5.7-3.4 7.7s-4.9 3.2-7.8 3.1l-40-0.7c-2.9-0.1-5.7-1.2-7.7-3.4-2-2.1-3.1-4.9-3.1-7.8l0.3-15 62 1.1-0.3 15z" fill="#525252" p-id="3041"></path></svg>